<svg width="1590" height="902" viewBox="0 0 1590 902" fill="none" xmlns="http://www.w3.org/2000/svg">
<g style="mix-blend-mode:color-dodge" opacity="0.43" clip-path="url(#clip0_100_508)">
<path d="M1707.53 402.066L700.93 -53.8312" stroke="white" strokeWidth="2.87121"/>
<path d="M1706.83 443.195L700.93 -53.8311" stroke="white" strokeWidth="2.87121"/>
<path d="M1707.53 492.688L700.93 -53.831" stroke="white" strokeWidth="2.87121"/>
<path d="M1707.53 554.032L700.93 -53.8309" stroke="white" strokeWidth="2.87121"/>
<path d="M1707.53 630.712L700.93 -53.8311" stroke="white" strokeWidth="2.87121"/>
<path d="M1707.53 728.305L700.93 -53.8311" stroke="white" strokeWidth="2.87121"/>
<path d="M1707.53 859.358L700.93 -53.831" stroke="white" strokeWidth="2.87121"/>
<path d="M1707.53 1043.39L700.93 -53.8312" stroke="white" strokeWidth="2.87121"/>
<path d="M1579.26 1145.17L700.93 -53.8311" stroke="white" strokeWidth="2.87121"/>
<path d="M1356.2 1145.17L700.929 -53.8311" stroke="white" strokeWidth="2.87121"/>
<path d="M1134.52 1145.17L700.93 -53.8311" stroke="white" strokeWidth="2.87121"/>
<path d="M912.845 1145.17L700.93 -53.8311" stroke="white" strokeWidth="2.87121"/>
<path d="M692.565 1145.17L700.93 -53.8311" stroke="white" strokeWidth="2.87121"/>
<path d="M-305.67 402.067L700.93 -53.831" stroke="white" strokeWidth="2.87121"/>
<path d="M-304.973 443.195L700.93 -53.8312" stroke="white" strokeWidth="2.87121"/>
<path d="M-305.67 492.688L700.93 -53.831" stroke="white" strokeWidth="2.87121"/>
<path d="M-305.67 554.032L700.93 -53.831" stroke="white" strokeWidth="2.87121"/>
<path d="M-305.67 630.713L700.93 -53.831" stroke="white" strokeWidth="2.87121"/>
<path d="M-305.67 728.305L700.93 -53.8311" stroke="white" strokeWidth="2.87121"/>
<path d="M-305.67 859.358L700.93 -53.8311" stroke="white" strokeWidth="2.87121"/>
<path d="M-305.67 1043.39L700.93 -53.8312" stroke="white" strokeWidth="2.87121"/>
<path d="M-177.405 1145.17L700.93 -53.8311" stroke="white" strokeWidth="2.87121"/>
<path d="M45.6639 1145.17L700.93 -53.831" stroke="white" strokeWidth="2.87121"/>
<path d="M267.339 1145.17L700.93 -53.831" stroke="white" strokeWidth="2.87121"/>
<path d="M489.014 1145.17L700.93 -53.8312" stroke="white" strokeWidth="2.87121"/>
<path d="M1707.53 883.059L-300.093 883.059" stroke="white" strokeWidth="2.87121"/>
<path d="M1707.53 788.255L-300.093 788.255" stroke="white" strokeWidth="2.87121"/>
<path d="M1707.53 712.969L-300.093 712.969" stroke="white" strokeWidth="2.87121"/>
<path d="M1707.53 648.837L-300.093 648.837" stroke="white" strokeWidth="2.87121"/>
<path d="M1707.53 595.858L-300.093 595.858" stroke="white" strokeWidth="2.87121"/>
<path d="M1707.53 549.85L-300.093 549.85" stroke="white" strokeWidth="2.87121"/>
<path d="M1707.53 509.418L-300.093 509.419" stroke="white" strokeWidth="2.87121"/>
<path d="M1707.53 473.17L-300.093 473.17" stroke="white" strokeWidth="2.87121"/>
<path d="M1707.53 442.498L-300.093 442.498" stroke="white" strokeWidth="2.87121"/>
<path d="M1707.53 416.008L-300.093 416.008" stroke="white" strokeWidth="2.87121"/>
<path d="M1707.53 390.913L-300.093 390.913" stroke="white" strokeWidth="2.87121"/>
<rect x="1590" y="902" width="1590" height="902" transform="rotate(180 1590 902)" fill="url(#paint0_linear_100_508)"/>
</g>
<defs>
<linearGradient id="paint0_linear_100_508" x1="2385" y1="881.3" x2="2385" y2="1804" gradientUnits="userSpaceOnUse">
<stop stop-opacity="0.4"/>
<stop offset="0.306976"/>
</linearGradient>
<clipPath id="clip0_100_508">
<rect width="1590" height="902" fill="white"/>
</clipPath>
</defs>
</svg>
